<svg width="1125" height="1503" viewBox="0 0 1125 1503" fill="none" xmlns="http://www.w3.org/2000/svg">
<path d="M879.759 323.339C886.066 348.539 889.386 374.873 889.386 402.007C889.386 580.77 744.397 725.76 565.633 725.76C531.686 725.76 498.952 720.506 468.152 710.799L455.285 735.12C489.232 746.053 525.379 752.013 562.993 752.013C756.29 752.013 913 595.304 913 402.007C913 372.086 909.24 343.032 902.146 315.378L879.759 323.339Z" fill="white"/>
<path d="M369.016 144.748C423.524 103.014 491.699 78.2405 565.633 78.2405C706.596 78.2405 826.478 168.282 870.933 293.938L893.333 285.978C845.465 149.735 715.61 52 563.007 52C482.418 52 408.124 79.2139 348.976 125.068L369.016 144.748Z" fill="white"/>
<path d="M439.191 700.119C323.162 650.865 241.881 535.969 241.881 402.007C241.881 308.205 281.788 223.683 345.483 164.615L325.442 144.922C256.307 208.803 213 300.325 213 402.007C213 546.823 300.935 671.079 426.324 724.36L439.191 700.119Z" fill="white"/>
<path d="M641.462 589.69C626.315 589.69 612.981 584.997 601.194 580.85C590.821 577.197 581.02 573.743 571.447 573.743C550.646 573.743 536.299 578.53 521.126 583.583C499.139 590.944 460.538 573.143 449.618 544.249C440.644 520.502 439.098 487.208 461.618 464.968C465.005 461.621 468.445 458.408 471.818 455.234C485.658 442.261 497.605 431.061 501.285 416.327C508.126 388.953 534.486 358.593 565.153 357.286C598.021 355.752 623.394 388.42 641.888 412.18C648.382 420.54 656.075 424.914 664.982 429.967C675.422 435.901 687.249 442.621 697.169 456.554C705.129 467.741 719.53 501.169 713.156 533.156C709.449 551.81 699.009 566.957 683.009 576.957C667.822 586.464 654.022 589.69 641.462 589.69ZM571.447 551.463C584.834 551.463 596.901 555.716 608.594 559.836C629.141 567.063 646.848 573.29 671.182 558.09C682.156 551.223 688.742 541.649 691.302 528.822C695.929 505.582 685.596 478.715 679.022 469.501C671.955 459.581 663.622 454.848 653.982 449.368C644.395 443.914 633.541 437.741 624.328 425.874C604.954 400.993 585.86 378.526 566.127 379.566C546.673 380.393 527.753 402.46 522.926 421.74C517.646 442.834 502.112 457.421 487.085 471.501C483.832 474.541 480.538 477.635 477.298 480.848C462.365 495.608 464.298 519.996 470.498 536.396C477.125 553.916 503.672 566.023 514.112 562.463C530.273 557.063 547.033 551.463 571.447 551.463Z" fill="white"/>
<path d="M442.671 425.807C425.924 425.807 411.337 413.394 400.484 402.54C377.483 379.54 368.71 336.845 391.403 314.152C400.71 304.845 410.364 303.271 416.831 303.645C433.071 304.512 445.258 317.538 449.751 323.099L452.991 327.125C458.978 334.579 462.925 339.499 470.658 347.819C485.352 363.633 491.592 390.66 470.538 412.634C462.245 421.274 452.991 425.714 443.031 425.82C442.911 425.807 442.791 425.807 442.671 425.807ZM407.164 329.899C394.297 342.766 401.404 371.926 416.244 386.78C427.511 398.047 436.151 403.513 442.671 403.513C442.711 403.513 442.751 403.513 442.791 403.513C444.191 403.5 448.445 403.46 454.458 397.18C469.765 381.206 457.045 365.873 454.338 362.966C446.058 354.059 441.911 348.886 435.618 341.072L432.404 337.085C428.404 332.112 421.604 326.205 415.644 325.885C413.857 325.792 410.964 326.112 407.164 329.899Z" fill="white"/>
<path d="M511.232 346.139C508.246 346.139 497.005 345.006 477.565 330.419C457.391 315.285 458.725 276.418 459.445 255.524C459.538 252.791 459.618 250.47 459.618 248.724C459.618 238.95 464.925 230.43 473.818 225.923C486.179 219.657 502.632 222.603 517.832 233.763C538.753 249.124 549.366 271.071 549.366 299.018C549.353 340.019 525.473 346.139 511.232 346.139ZM488.059 244.95C486.339 244.95 484.925 245.27 483.885 245.804C482.098 246.71 481.898 247.897 481.898 248.724C481.898 250.67 481.805 253.244 481.712 256.284C481.258 269.444 480.058 304.431 490.939 312.592C503.632 322.112 510.606 323.659 511.712 323.859C518.006 323.845 527.073 323.232 527.073 299.018C527.073 277.991 519.952 262.964 504.632 251.724C497.805 246.71 492.072 244.95 488.059 244.95Z" fill="white"/>
<path d="M599.167 328.219C594.647 328.219 590.821 327.472 587.727 326.485C577.994 323.378 570.274 316.285 565.993 306.498C560.287 293.431 560.167 277.191 565.633 260.764C575.407 231.443 591.581 220.27 607.288 211.35C617.128 205.75 627.475 204.79 636.355 208.603C645.595 212.55 652.342 221.377 655.355 233.43C658.889 247.564 667.302 295.525 627.501 319.405C616.314 326.099 606.781 328.219 599.167 328.219ZM586.781 267.804C583.1 278.831 582.967 289.685 586.42 297.578C587.594 300.271 589.967 303.818 594.501 305.258C600.074 307.032 607.714 305.271 616.021 300.285C642.688 284.284 636.315 249.19 633.728 238.817C632.448 233.683 630.275 230.217 627.581 229.07C624.368 227.71 620.394 229.51 618.301 230.71C604.901 238.31 594.087 245.884 586.781 267.804Z" fill="white"/>
<path d="M687.236 408.22C678.222 408.22 669.529 403.927 660.715 395.113C630.741 365.126 644.088 330.205 654.782 318.885C657.555 315.938 660.822 310.618 663.982 305.472C668.115 298.725 672.382 291.765 677.409 286.751C686.596 277.578 699.223 274.378 711.303 278.244C726.623 283.151 737.73 297.885 741.037 317.658C746.984 353.392 734.997 370.766 722.196 385.5C713.17 395.9 702.929 407.687 688.222 408.207C687.916 408.207 687.569 408.22 687.236 408.22ZM676.475 379.353C680.822 383.686 684.569 386.006 687.462 385.926C692.476 385.753 699.343 377.846 705.396 370.873C716.17 358.459 723.463 347.646 719.076 321.312C716.836 307.912 710.089 301.231 704.529 299.445C700.423 298.138 696.489 299.178 693.182 302.485C690.022 305.645 686.449 311.472 682.982 317.098C679.236 323.205 675.355 329.525 671.009 334.152C667.822 337.525 656.035 358.899 676.475 379.353Z" fill="white"/>
<path d="M107.277 875.6H161.317V892.68H126.597V975H107.277V875.6ZM130.237 931.74V914.66H155.437V931.74H130.237ZM244.324 975H223.464L200.784 933.56V917.32H209.744C213.571 917.32 216.698 916.293 219.124 914.24C221.551 912.093 222.764 909.013 222.764 905C222.764 900.987 221.551 897.953 219.124 895.9C216.698 893.753 213.571 892.68 209.744 892.68H197.144V975H177.824V875.6H210.864C216.744 875.6 222.018 876.813 226.684 879.24C231.444 881.667 235.178 885.12 237.884 889.6C240.684 893.987 242.084 899.12 242.084 905C242.084 911.907 240.171 917.833 236.344 922.78C232.518 927.727 227.478 931.133 221.224 933L244.324 975ZM289.392 898.42L278.192 940.7H296.252L300.452 957.78H273.712L269.232 975H250.752L277.912 875.74C276.139 874.247 274.739 872.473 273.712 870.42C272.686 868.273 272.172 865.987 272.172 863.56C272.172 859.08 273.852 855.253 277.212 852.08C280.572 848.907 284.586 847.32 289.252 847.32C293.919 847.32 297.932 848.907 301.292 852.08C304.652 855.253 306.332 859.08 306.332 863.56C306.332 865.987 305.819 868.273 304.792 870.42C303.766 872.473 302.366 874.247 300.592 875.74L327.752 975H308.712L289.392 898.42ZM289.252 855.58C287.012 855.58 285.099 856.327 283.512 857.82C282.019 859.313 281.272 861.227 281.272 863.56C281.272 865.893 282.019 867.853 283.512 869.44C285.099 870.933 287.012 871.68 289.252 871.68C291.492 871.68 293.359 870.933 294.852 869.44C296.439 867.853 297.232 865.893 297.232 863.56C297.232 861.227 296.439 859.313 294.852 857.82C293.359 856.327 291.492 855.58 289.252 855.58ZM389.243 875.6H407.163V975H389.243L340.383 875.6H358.443L389.243 938.18V875.6ZM340.383 975V884.28L358.163 920.4V975H340.383ZM499.215 975H479.195L451.195 875.6H471.215L499.215 975ZM492.215 935.66L508.595 875.6H528.055L501.455 968.98L492.215 935.66ZM585.294 975L565.974 898.42L554.774 940.7H572.834L577.034 957.78H550.294L545.814 975H527.334L554.494 875.6H577.174L604.334 975H585.294ZM616.965 975V875.6H636.285V975H616.965ZM639.925 975V957.92H669.185V975H639.925ZM716.557 875.6C722.437 875.6 727.711 876.813 732.377 879.24C737.137 881.667 740.871 885.12 743.577 889.6C746.377 893.987 747.777 899.12 747.777 905C747.777 910.88 746.377 916.06 743.577 920.54C740.871 924.927 737.137 928.333 732.377 930.76C727.711 933.187 722.437 934.4 716.557 934.4H707.737V917.32H715.437C719.264 917.32 722.391 916.293 724.817 914.24C727.244 912.093 728.457 909.013 728.457 905C728.457 900.987 727.244 897.953 724.817 895.9C722.391 893.753 719.264 892.68 715.437 892.68H704.097V975H684.777V875.6H716.557ZM782.641 892.68V875.6H846.061V892.68H782.641ZM804.761 975V896.04H824.081V975H804.761ZM861.851 975V875.6H881.171V975H861.851ZM903.938 975V875.6H923.258V975H903.938ZM926.898 975V957.92H956.158V975H926.898ZM971.75 975V875.6H991.07V975H971.75ZM994.71 975V957.92H1023.97V975H994.71ZM134.184 1060.68V1043.6H197.604V1060.68H134.184ZM156.304 1143V1064.04H175.624V1143H156.304ZM251.743 1043.6V1115C251.743 1123.4 249.223 1130.4 244.183 1136C239.237 1141.6 232.423 1144.59 223.743 1144.96V1127.46C226.637 1126.99 228.783 1125.59 230.183 1123.26C231.677 1120.83 232.423 1117.8 232.423 1114.16V1043.6H251.743ZM211.003 1115C211.003 1118.36 211.75 1121.21 213.243 1123.54C214.83 1125.78 217.117 1127.09 220.103 1127.46V1144.96C214.317 1144.68 209.277 1143.23 204.983 1140.62C200.69 1137.91 197.377 1134.37 195.043 1129.98C192.803 1125.5 191.683 1120.51 191.683 1115H211.003ZM321.017 1143L301.697 1066.42L290.497 1108.7H308.557L312.757 1125.78H286.017L281.537 1143H263.057L290.217 1043.6H312.897L340.057 1143H321.017ZM287.417 1037.44C284.524 1037.44 282.05 1036.46 279.997 1034.5C278.037 1032.54 277.057 1030.16 277.057 1027.36C277.057 1024.56 278.037 1022.18 279.997 1020.22C282.05 1018.26 284.524 1017.28 287.417 1017.28C290.31 1017.28 292.737 1018.26 294.697 1020.22C296.75 1022.18 297.777 1024.56 297.777 1027.36C297.777 1030.16 296.75 1032.54 294.697 1034.5C292.737 1036.46 290.31 1037.44 287.417 1037.44ZM315.697 1037.44C312.804 1037.44 310.33 1036.46 308.277 1034.5C306.317 1032.54 305.337 1030.16 305.337 1027.36C305.337 1024.56 306.317 1022.18 308.277 1020.22C310.33 1018.26 312.804 1017.28 315.697 1017.28C318.59 1017.28 321.017 1018.26 322.977 1020.22C325.03 1022.18 326.057 1024.56 326.057 1027.36C326.057 1030.16 325.03 1032.54 322.977 1034.5C321.017 1036.46 318.59 1037.44 315.697 1037.44ZM401.548 1043.6H419.468V1143H401.548L352.688 1043.6H370.748L401.548 1106.18V1043.6ZM352.688 1143V1052.28L370.468 1088.4V1143H352.688ZM500.501 1114.72C500.501 1120.41 499.195 1125.55 496.581 1130.12C493.968 1134.6 490.328 1138.15 485.661 1140.76C480.995 1143.37 475.721 1144.77 469.841 1144.96V1128.02C473.481 1127.83 476.375 1126.57 478.521 1124.24C480.761 1121.91 481.881 1118.87 481.881 1115.14C481.881 1111.78 480.761 1109.07 478.521 1107.02C476.281 1104.87 473.155 1103.15 469.141 1101.84L462.701 1099.74C454.021 1096.85 447.628 1093.11 443.521 1088.54C439.415 1083.97 437.361 1077.95 437.361 1070.48C437.361 1065.16 438.575 1060.35 441.001 1056.06C443.428 1051.77 446.788 1048.36 451.081 1045.84C455.468 1043.32 460.508 1041.92 466.201 1041.64V1058.72C463.121 1059 460.648 1060.12 458.781 1062.08C456.915 1064.04 455.981 1066.61 455.981 1069.78C455.981 1072.86 457.055 1075.47 459.201 1077.62C461.441 1079.67 464.801 1081.45 469.281 1082.94L476.001 1085.18C483.748 1087.79 489.768 1091.43 494.061 1096.1C498.355 1100.77 500.501 1106.97 500.501 1114.72ZM481.041 1069.36C480.388 1066.19 479.081 1063.71 477.121 1061.94C475.255 1060.07 472.828 1059 469.841 1058.72V1041.64C478.521 1042.01 485.568 1044.67 490.981 1049.62C496.488 1054.47 499.335 1061.05 499.521 1069.36H481.041ZM454.021 1114.44C454.395 1118.08 455.655 1121.11 457.801 1123.54C460.041 1125.87 462.841 1127.32 466.201 1127.88V1144.82C460.415 1144.45 455.235 1143 450.661 1140.48C446.088 1137.96 442.448 1134.46 439.741 1129.98C437.128 1125.5 435.775 1120.32 435.681 1114.44H454.021ZM509.75 1060.68V1043.6H573.17V1060.68H509.75ZM531.87 1143V1064.04H551.19V1143H531.87ZM642.021 1060.68H607.301V1143H587.981V1043.6H642.021V1060.68ZM636.841 1099.74H610.941V1082.66H636.841V1099.74ZM610.941 1125.92H642.441V1143H610.941V1125.92ZM661.399 1143V1043.6H680.719V1143H661.399ZM706.899 1043.6H726.219V1143H706.899V1099.74H684.359V1082.66H706.899V1043.6ZM767.398 1112.34C767.398 1116.54 768.332 1120.04 770.198 1122.84C772.065 1125.55 774.818 1127.09 778.458 1127.46V1144.96C772.205 1144.68 766.792 1143.14 762.218 1140.34C757.645 1137.54 754.145 1133.81 751.718 1129.14C749.292 1124.47 748.078 1119.15 748.078 1113.18V1043.6H767.398V1112.34ZM812.478 1043.6V1113.18C812.478 1119.15 811.265 1124.47 808.838 1129.14C806.412 1133.81 802.912 1137.54 798.338 1140.34C793.765 1143.14 788.352 1144.68 782.098 1144.96V1127.46C785.738 1127.09 788.492 1125.55 790.358 1122.84C792.225 1120.04 793.158 1116.54 793.158 1112.34V1043.6H812.478ZM883.208 1043.6H901.128V1143H883.208L834.348 1043.6H852.408L883.208 1106.18V1043.6ZM834.348 1143V1052.28L852.128 1088.4V1143H834.348ZM922.941 1143V1043.6H942.261V1143H922.941ZM953.461 1125.64C957.848 1125.64 961.161 1124.19 963.401 1121.3C965.641 1118.41 966.761 1114.58 966.761 1109.82V1076.78C966.761 1072.02 965.641 1068.19 963.401 1065.3C961.161 1062.41 957.848 1060.96 953.461 1060.96H945.901V1043.6H954.581C961.021 1043.6 966.621 1045 971.381 1047.8C976.141 1050.6 979.781 1054.47 982.301 1059.42C984.821 1064.27 986.081 1069.78 986.081 1075.94V1110.66C986.081 1116.82 984.821 1122.37 982.301 1127.32C979.781 1132.17 976.141 1136 971.381 1138.8C966.621 1141.6 961.021 1143 954.581 1143H945.901V1125.64H953.461Z" fill="white"/>
<path d="M108.2 1228.95H129.43V1235.66H115.79V1268H108.2V1228.95ZM117.22 1251V1244.29H127.12V1251H117.22ZM142.034 1255.95C142.034 1257.6 142.401 1258.98 143.134 1260.08C143.868 1261.14 144.949 1261.75 146.379 1261.89V1268.77C143.923 1268.66 141.796 1268.06 139.999 1266.95C138.203 1265.85 136.828 1264.39 135.874 1262.55C134.921 1260.72 134.444 1258.63 134.444 1256.28V1240.66C134.444 1238.32 134.921 1236.23 135.874 1234.39C136.828 1232.56 138.203 1231.09 139.999 1229.99C141.796 1228.89 143.923 1228.29 146.379 1228.18V1235.05C144.949 1235.2 143.868 1235.82 143.134 1236.93C142.401 1237.99 142.034 1239.34 142.034 1240.99V1255.95ZM147.809 1228.18C150.266 1228.29 152.393 1228.89 154.189 1229.99C155.986 1231.09 157.361 1232.56 158.314 1234.39C159.268 1236.23 159.744 1238.32 159.744 1240.66V1256.28C159.744 1258.63 159.268 1260.72 158.314 1262.55C157.361 1264.39 155.986 1265.85 154.189 1266.95C152.393 1268.06 150.266 1268.66 147.809 1268.77V1261.89C149.239 1261.75 150.321 1261.14 151.054 1260.08C151.788 1258.98 152.154 1257.6 152.154 1255.95V1240.99C152.154 1239.34 151.788 1237.99 151.054 1236.93C150.321 1235.82 149.239 1235.2 147.809 1235.05V1228.18ZM141.539 1226.53C140.403 1226.53 139.431 1226.14 138.624 1225.37C137.854 1224.6 137.469 1223.67 137.469 1222.57C137.469 1221.47 137.854 1220.53 138.624 1219.76C139.431 1218.99 140.403 1218.61 141.539 1218.61C142.676 1218.61 143.629 1218.99 144.399 1219.76C145.206 1220.53 145.609 1221.47 145.609 1222.57C145.609 1223.67 145.206 1224.6 144.399 1225.37C143.629 1226.14 142.676 1226.53 141.539 1226.53ZM152.649 1226.53C151.513 1226.53 150.541 1226.14 149.734 1225.37C148.964 1224.6 148.579 1223.67 148.579 1222.57C148.579 1221.47 148.964 1220.53 149.734 1219.76C150.541 1218.99 151.513 1218.61 152.649 1218.61C153.786 1218.61 154.739 1218.99 155.509 1219.76C156.316 1220.53 156.719 1221.47 156.719 1222.57C156.719 1223.67 156.316 1224.6 155.509 1225.37C154.739 1226.14 153.786 1226.53 152.649 1226.53ZM193.568 1268H185.373L176.463 1251.72V1245.34H179.983C181.487 1245.34 182.715 1244.94 183.668 1244.13C184.622 1243.29 185.098 1242.08 185.098 1240.5C185.098 1238.92 184.622 1237.73 183.668 1236.93C182.715 1236.08 181.487 1235.66 179.983 1235.66H175.033V1268H167.443V1228.95H180.423C182.733 1228.95 184.805 1229.43 186.638 1230.38C188.508 1231.33 189.975 1232.69 191.038 1234.45C192.138 1236.17 192.688 1238.19 192.688 1240.5C192.688 1243.21 191.937 1245.54 190.433 1247.48C188.93 1249.43 186.95 1250.77 184.493 1251.5L193.568 1268ZM223.096 1256.89C223.096 1259.13 222.583 1261.14 221.556 1262.94C220.529 1264.7 219.099 1266.09 217.266 1267.12C215.433 1268.15 213.361 1268.7 211.051 1268.77V1262.11C212.481 1262.04 213.618 1261.55 214.461 1260.63C215.341 1259.71 215.781 1258.52 215.781 1257.05C215.781 1255.73 215.341 1254.67 214.461 1253.87C213.581 1253.02 212.353 1252.34 210.776 1251.83L208.246 1251C204.836 1249.87 202.324 1248.4 200.711 1246.6C199.098 1244.81 198.291 1242.44 198.291 1239.51C198.291 1237.42 198.768 1235.53 199.721 1233.84C200.674 1232.16 201.994 1230.82 203.681 1229.83C205.404 1228.84 207.384 1228.29 209.621 1228.18V1234.89C208.411 1235 207.439 1235.44 206.706 1236.21C205.973 1236.98 205.606 1237.99 205.606 1239.23C205.606 1240.44 206.028 1241.47 206.871 1242.31C207.751 1243.12 209.071 1243.82 210.831 1244.4L213.471 1245.28C216.514 1246.31 218.879 1247.74 220.566 1249.57C222.253 1251.41 223.096 1253.85 223.096 1256.89ZM215.451 1239.07C215.194 1237.82 214.681 1236.85 213.911 1236.15C213.178 1235.42 212.224 1235 211.051 1234.89V1228.18C214.461 1228.33 217.229 1229.37 219.356 1231.31C221.519 1233.22 222.638 1235.81 222.711 1239.07H215.451ZM204.836 1256.78C204.983 1258.21 205.478 1259.4 206.321 1260.35C207.201 1261.27 208.301 1261.84 209.621 1262.06V1268.72C207.348 1268.57 205.313 1268 203.516 1267.01C201.719 1266.02 200.289 1264.64 199.226 1262.88C198.199 1261.12 197.668 1259.09 197.631 1256.78H204.836ZM245.096 1268H237.231L226.231 1228.95H234.096L245.096 1268ZM242.346 1252.54L248.781 1228.95H256.426L245.976 1265.63L242.346 1252.54ZM278.912 1268L271.322 1237.91L266.922 1254.52H274.017L275.667 1261.23H265.162L263.402 1268H256.142L266.812 1228.95H275.722L286.392 1268H278.912ZM317.479 1268H309.284L300.374 1251.72V1245.34H303.894C305.398 1245.34 306.626 1244.94 307.579 1244.13C308.533 1243.29 309.009 1242.08 309.009 1240.5C309.009 1238.92 308.533 1237.73 307.579 1236.93C306.626 1236.08 305.398 1235.66 303.894 1235.66H298.944V1268H291.354V1228.95H304.334C306.644 1228.95 308.716 1229.43 310.549 1230.38C312.419 1231.33 313.886 1232.69 314.949 1234.45C316.049 1236.17 316.599 1238.19 316.599 1240.5C316.599 1243.21 315.848 1245.54 314.344 1247.48C312.841 1249.43 310.861 1250.77 308.404 1251.5L317.479 1268ZM347.007 1256.89C347.007 1259.13 346.494 1261.14 345.467 1262.94C344.44 1264.7 343.01 1266.09 341.177 1267.12C339.344 1268.15 337.272 1268.7 334.962 1268.77V1262.11C336.392 1262.04 337.529 1261.55 338.372 1260.63C339.252 1259.71 339.692 1258.52 339.692 1257.05C339.692 1255.73 339.252 1254.67 338.372 1253.87C337.492 1253.02 336.264 1252.34 334.687 1251.83L332.157 1251C328.747 1249.87 326.235 1248.4 324.622 1246.6C323.009 1244.81 322.202 1242.44 322.202 1239.51C322.202 1237.42 322.679 1235.53 323.632 1233.84C324.585 1232.16 325.905 1230.82 327.592 1229.83C329.315 1228.84 331.295 1228.29 333.532 1228.18V1234.89C332.322 1235 331.35 1235.44 330.617 1236.21C329.884 1236.98 329.517 1237.99 329.517 1239.23C329.517 1240.44 329.939 1241.47 330.782 1242.31C331.662 1243.12 332.982 1243.82 334.742 1244.4L337.382 1245.28C340.425 1246.31 342.79 1247.74 344.477 1249.57C346.164 1251.41 347.007 1253.85 347.007 1256.89ZM339.362 1239.07C339.105 1237.82 338.592 1236.85 337.822 1236.15C337.089 1235.42 336.135 1235 334.962 1234.89V1228.18C338.372 1228.33 341.14 1229.37 343.267 1231.31C345.43 1233.22 346.549 1235.81 346.622 1239.07H339.362ZM328.747 1256.78C328.894 1258.21 329.389 1259.4 330.232 1260.35C331.112 1261.27 332.212 1261.84 333.532 1262.06V1268.72C331.259 1268.57 329.224 1268 327.427 1267.01C325.63 1266.02 324.2 1264.64 323.137 1262.88C322.11 1261.12 321.579 1259.09 321.542 1256.78H328.747ZM379.07 1228.95H386.605V1268H379.565V1242.86L370.545 1262.44H369.665L353.605 1228.95H361.25L370.105 1248.42L379.07 1228.95ZM353.605 1268V1232.52L360.645 1247.15V1268H353.605ZM414.318 1268L406.728 1237.91L402.328 1254.52H409.423L411.073 1261.23H400.568L398.808 1268H391.548L402.218 1228.95H411.128L421.798 1268H414.318ZM426.76 1268V1228.95H434.35V1268H426.76ZM441.335 1247.7L453.93 1268H444.965L435.78 1252.98V1243.3L444.855 1228.95H453.545L441.335 1247.7ZM456.075 1235.66V1228.95H480.99V1235.66H456.075ZM464.765 1268V1236.98H472.355V1268H464.765ZM508.039 1235.66H494.399V1268H486.809V1228.95H508.039V1235.66ZM506.004 1251H495.829V1244.29H506.004V1251ZM495.829 1261.29H508.204V1268H495.829V1261.29ZM534.846 1228.95H541.886V1268H534.846L515.651 1228.95H522.746L534.846 1253.53V1228.95ZM515.651 1268V1232.36L522.636 1246.55V1268H515.651ZM573.721 1256.89C573.721 1259.13 573.208 1261.14 572.181 1262.94C571.154 1264.7 569.724 1266.09 567.891 1267.12C566.058 1268.15 563.986 1268.7 561.676 1268.77V1262.11C563.106 1262.04 564.243 1261.55 565.086 1260.63C565.966 1259.71 566.406 1258.52 566.406 1257.05C566.406 1255.73 565.966 1254.67 565.086 1253.87C564.206 1253.02 562.978 1252.34 561.401 1251.83L558.871 1251C555.461 1249.87 552.949 1248.4 551.336 1246.6C549.723 1244.81 548.916 1242.44 548.916 1239.51C548.916 1237.42 549.393 1235.53 550.346 1233.84C551.299 1232.16 552.619 1230.82 554.306 1229.83C556.029 1228.84 558.009 1228.29 560.246 1228.18V1234.89C559.036 1235 558.064 1235.44 557.331 1236.21C556.598 1236.98 556.231 1237.99 556.231 1239.23C556.231 1240.44 556.653 1241.47 557.496 1242.31C558.376 1243.12 559.696 1243.82 561.456 1244.4L564.096 1245.28C567.139 1246.31 569.504 1247.74 571.191 1249.57C572.878 1251.41 573.721 1253.85 573.721 1256.89ZM566.076 1239.07C565.819 1237.82 565.306 1236.85 564.536 1236.15C563.803 1235.42 562.849 1235 561.676 1234.89V1228.18C565.086 1228.33 567.854 1229.37 569.981 1231.31C572.144 1233.22 573.263 1235.81 573.336 1239.07H566.076ZM555.461 1256.78C555.608 1258.21 556.103 1259.4 556.946 1260.35C557.826 1261.27 558.926 1261.84 560.246 1262.06V1268.72C557.973 1268.57 555.938 1268 554.141 1267.01C552.344 1266.02 550.914 1264.64 549.851 1262.88C548.824 1261.12 548.293 1259.09 548.256 1256.78H555.461ZM589.171 1235.66V1228.95H614.086V1235.66H589.171ZM597.861 1268V1236.98H605.451V1268H597.861ZM635.355 1228.95V1257C635.355 1260.3 634.365 1263.05 632.385 1265.25C630.442 1267.45 627.765 1268.62 624.355 1268.77V1261.89C625.492 1261.71 626.335 1261.16 626.885 1260.24C627.472 1259.29 627.765 1258.1 627.765 1256.67V1228.95H635.355ZM619.35 1257C619.35 1258.32 619.643 1259.44 620.23 1260.35C620.853 1261.23 621.752 1261.75 622.925 1261.89V1268.77C620.652 1268.66 618.672 1268.09 616.985 1267.06C615.298 1266 613.997 1264.61 613.08 1262.88C612.2 1261.12 611.76 1259.16 611.76 1257H619.35ZM662.57 1268L654.98 1237.91L650.58 1254.52H657.675L659.325 1261.23H648.82L647.06 1268H639.8L650.47 1228.95H659.38L670.05 1268H662.57ZM649.37 1226.53C648.233 1226.53 647.261 1226.14 646.455 1225.37C645.685 1224.6 645.3 1223.67 645.3 1222.57C645.3 1221.47 645.685 1220.53 646.455 1219.76C647.261 1218.99 648.233 1218.61 649.37 1218.61C650.506 1218.61 651.46 1218.99 652.23 1219.76C653.036 1220.53 653.44 1221.47 653.44 1222.57C653.44 1223.67 653.036 1224.6 652.23 1225.37C651.46 1226.14 650.506 1226.53 649.37 1226.53ZM660.48 1226.53C659.343 1226.53 658.371 1226.14 657.565 1225.37C656.795 1224.6 656.41 1223.67 656.41 1222.57C656.41 1221.47 656.795 1220.53 657.565 1219.76C658.371 1218.99 659.343 1218.61 660.48 1218.61C661.616 1218.61 662.57 1218.99 663.34 1219.76C664.146 1220.53 664.55 1221.47 664.55 1222.57C664.55 1223.67 664.146 1224.6 663.34 1225.37C662.57 1226.14 661.616 1226.53 660.48 1226.53ZM694.207 1228.95H701.247V1268H694.207L675.012 1228.95H682.107L694.207 1253.53V1228.95ZM675.012 1268V1232.36L681.997 1246.55V1268H675.012ZM733.081 1256.89C733.081 1259.13 732.568 1261.14 731.541 1262.94C730.515 1264.7 729.085 1266.09 727.251 1267.12C725.418 1268.15 723.346 1268.7 721.036 1268.77V1262.11C722.466 1262.04 723.603 1261.55 724.446 1260.63C725.326 1259.71 725.766 1258.52 725.766 1257.05C725.766 1255.73 725.326 1254.67 724.446 1253.87C723.566 1253.02 722.338 1252.34 720.761 1251.83L718.231 1251C714.821 1249.87 712.31 1248.4 710.696 1246.6C709.083 1244.81 708.276 1242.44 708.276 1239.51C708.276 1237.42 708.753 1235.53 709.706 1233.84C710.66 1232.16 711.98 1230.82 713.666 1229.83C715.39 1228.84 717.37 1228.29 719.606 1228.18V1234.89C718.396 1235 717.425 1235.44 716.691 1236.21C715.958 1236.98 715.591 1237.99 715.591 1239.23C715.591 1240.44 716.013 1241.47 716.856 1242.31C717.736 1243.12 719.056 1243.82 720.816 1244.4L723.456 1245.28C726.5 1246.31 728.865 1247.74 730.551 1249.57C732.238 1251.41 733.081 1253.85 733.081 1256.89ZM725.436 1239.07C725.18 1237.82 724.666 1236.85 723.896 1236.15C723.163 1235.42 722.21 1235 721.036 1234.89V1228.18C724.446 1228.33 727.215 1229.37 729.341 1231.31C731.505 1233.22 732.623 1235.81 732.696 1239.07H725.436ZM714.821 1256.78C714.968 1258.21 715.463 1259.4 716.306 1260.35C717.186 1261.27 718.286 1261.84 719.606 1262.06V1268.72C717.333 1268.57 715.298 1268 713.501 1267.01C711.705 1266.02 710.275 1264.64 709.211 1262.88C708.185 1261.12 707.653 1259.09 707.616 1256.78H714.821ZM736.715 1235.66V1228.95H761.63V1235.66H736.715ZM745.405 1268V1236.98H752.995V1268H745.405ZM767.448 1268V1228.95H775.038V1268H767.448ZM785.323 1228.95H792.913V1268H785.323V1251H776.468V1244.29H785.323V1228.95ZM809.091 1255.95C809.091 1257.6 809.458 1258.98 810.191 1260.08C810.924 1261.14 812.006 1261.75 813.436 1261.89V1268.77C810.979 1268.66 808.853 1268.06 807.056 1266.95C805.259 1265.85 803.884 1264.39 802.931 1262.55C801.978 1260.72 801.501 1258.63 801.501 1256.28V1228.95H809.091V1255.95ZM826.801 1228.95V1256.28C826.801 1258.63 826.324 1260.72 825.371 1262.55C824.418 1264.39 823.043 1265.85 821.246 1266.95C819.449 1268.06 817.323 1268.66 814.866 1268.77V1261.89C816.296 1261.75 817.378 1261.14 818.111 1260.08C818.844 1258.98 819.211 1257.6 819.211 1255.95V1228.95H826.801ZM854.588 1228.95H861.628V1268H854.588L835.393 1228.95H842.488L854.588 1253.53V1228.95ZM835.393 1268V1232.36L842.378 1246.55V1268H835.393ZM870.197 1268V1228.95H877.787V1268H870.197ZM882.187 1261.18C883.911 1261.18 885.212 1260.61 886.092 1259.47C886.972 1258.34 887.412 1256.83 887.412 1254.96V1241.98C887.412 1240.11 886.972 1238.61 886.092 1237.47C885.212 1236.34 883.911 1235.77 882.187 1235.77H879.217V1228.95H882.627C885.157 1228.95 887.357 1229.5 889.227 1230.6C891.097 1231.7 892.527 1233.22 893.517 1235.16C894.507 1237.07 895.002 1239.23 895.002 1241.65V1255.29C895.002 1257.71 894.507 1259.9 893.517 1261.84C892.527 1263.75 891.097 1265.25 889.227 1266.35C887.357 1267.45 885.157 1268 882.627 1268H879.217V1261.18H882.187ZM923.922 1235.66H910.282V1268H902.692V1228.95H923.922V1235.66ZM921.887 1251H911.712V1244.29H921.887V1251ZM911.712 1261.29H924.087V1268H911.712V1261.29ZM950.73 1228.95H957.77V1268H950.73L931.535 1228.95H938.63L950.73 1253.53V1228.95ZM931.535 1268V1232.36L938.52 1246.55V1268H931.535ZM966.34 1268V1228.95H973.93V1268H966.34ZM984.215 1228.95H991.805V1268H984.215V1251H975.36V1244.29H984.215V1228.95ZM1021.62 1235.66H1007.98V1268H1000.39V1228.95H1021.62V1235.66ZM1019.59 1251H1009.41V1244.29H1019.59V1251ZM1009.41 1261.29H1021.79V1268H1009.41V1261.29ZM1026.65 1235.66V1228.95H1051.56V1235.66H1026.65ZM1035.34 1268V1236.98H1042.93V1268H1035.34Z" fill="white"/>
</svg>
